name rise38.3101peak57.3503fall81.6963.mot
datacolumns 19
datarows 35
range 16.12327700000000 16.17994100000000
endheader
time	ground_force1_vx	ground_force1_vy	ground_force1_vz	ground_force1_px	ground_force1_py	ground_force1_pz	ground_force2_vx	ground_force2_vy	ground_force2_vz	ground_force2_px	ground_force2_py	ground_force2_pz	ground_torque1_x	ground_torque1_y	ground_torque1_z	ground_torque2_x	ground_torque2_y	ground_torque2_z	
16.12327700000000	-55.49710100000000	848.52468399999998	62.55064700000000	0.11659600000000	0.00000000000000	0.11822400000000	0.00000000000000	0.00000000000000	0.00000000000000	0.00000000000000	0.00000000000000	0.00000000000000	0.00000000000000	27.05440000000000	0.00000000000000	0.00000000000000	0.00000000000000	0.00000000000000	
16.12493900000000	-55.54857100000000	846.37519399999996	62.47522500000000	0.11606300000000	0.00000000000000	0.11822000000000	0.00000000000000	0.00000000000000	0.00000000000000	0.00000000000000	0.00000000000000	0.00000000000000	0.00000000000000	26.92834200000000	0.00000000000000	0.00000000000000	0.00000000000000	0.00000000000000	
16.12661100000000	-55.59766800000000	844.03957900000000	62.36860100000000	0.11554300000000	0.00000000000000	0.11821400000000	-1.49147200000000	3.69207000000000	0.89582200000000	0.00000000000000	0.00000000000000	0.00000000000000	0.00000000000000	26.79902500000000	0.00000000000000	0.00000000000000	0.27345000000000	0.00000000000000	
16.12827900000000	-55.64512700000000	841.51885600000003	62.23012600000000	0.11503800000000	0.00000000000000	0.11820500000000	-2.42233300000000	6.95852900000000	1.51104500000000	0.00000000000000	0.00000000000000	0.00000000000000	0.00000000000000	26.66663000000000	0.00000000000000	0.00000000000000	0.46832000000000	0.00000000000000	
16.12994700000000	-55.69167800000000	838.81426599999998	62.05920600000000	0.11454700000000	0.00000000000000	0.11819300000000	-3.48254700000000	10.88558400000000	2.22329100000000	0.00000000000000	0.00000000000000	0.00000000000000	0.00000000000000	26.53133000000000	0.00000000000000	0.00000000000000	0.69538100000000	0.00000000000000	
16.13161000000000	-55.73803700000000	835.92726300000004	61.85531300000000	0.11407000000000	0.00000000000000	0.11817800000000	-4.64208100000000	15.42661200000000	3.01583000000000	0.00000000000000	0.00000000000000	0.00000000000000	0.00000000000000	26.39329900000000	0.00000000000000	0.00000000000000	0.94977000000000	0.00000000000000	
16.13327400000000	-55.78490900000000	832.85950700000001	61.61797700000000	0.11360600000000	0.00000000000000	0.11815900000000	-5.86279700000000	20.50549600000000	3.86644400000000	0.00000000000000	0.00000000000000	0.00000000000000	0.00000000000000	26.25270800000000	0.00000000000000	0.00000000000000	1.22488600000000	0.00000000000000	
16.13495300000000	-55.83297900000000	829.61284599999999	61.34679300000000	0.11315600000000	0.00000000000000	0.11813600000000	-7.10093900000000	26.02238800000000	4.74888800000000	0.35536900000000	0.00000000000000	-0.06564700000000	0.00000000000000	26.10972100000000	0.00000000000000	0.00000000000000	2.73429500000000	0.00000000000000	
16.13661000000000	-55.88291300000000	826.18930899999998	61.04142500000000	0.11272000000000	0.00000000000000	0.11811000000000	-8.31031600000000	31.86209600000000	5.63483500000000	0.35849900000000	0.00000000000000	-0.06652900000000	0.00000000000000	25.96449900000000	0.00000000000000	0.00000000000000	3.27224600000000	0.00000000000000	
16.13828100000000	-55.93534800000000	822.59108700000002	60.70160400000000	0.11229500000000	0.00000000000000	0.11808000000000	-9.44578100000000	37.90400900000000	6.49604400000000	0.36149000000000	0.00000000000000	-0.06734600000000	0.00000000000000	25.81719700000000	0.00000000000000	0.00000000000000	3.80498500000000	0.00000000000000	
16.13994300000000	-55.99089700000000	818.82052599999997	60.32712800000000	0.11188400000000	0.00000000000000	0.11804500000000	-10.46651100000000	44.03212800000000	7.30644700000000	0.36434400000000	0.00000000000000	-0.06810600000000	0.00000000000000	25.66796200000000	0.00000000000000	0.00000000000000	4.31755500000000	0.00000000000000	
16.14160600000000	-56.05013800000000	814.88010899999995	59.91787200000000	0.11148400000000	0.00000000000000	0.11800600000000	-11.33868400000000	50.14389800000000	8.04389500000000	0.36706500000000	0.00000000000000	-0.06881800000000	0.00000000000000	25.51693500000000	0.00000000000000	0.00000000000000	4.79694300000000	0.00000000000000	
16.14327600000000	-56.11361200000000	810.77244499999995	59.47377700000000	0.11109500000000	0.00000000000000	0.11796300000000	-12.03729400000000	56.15687900000000	8.69139000000000	0.36965800000000	0.00000000000000	-0.06948700000000	0.00000000000000	25.36425100000000	0.00000000000000	0.00000000000000	5.23284800000000	0.00000000000000	
16.14494200000000	-56.18182100000000	806.50025400000004	58.99486200000000	0.11071800000000	0.00000000000000	0.11791500000000	-12.54699700000000	62.01283600000000	9.23771800000000	0.37212400000000	0.00000000000000	-0.07011800000000	0.00000000000000	25.21003500000000	0.00000000000000	0.00000000000000	5.61812700000000	0.00000000000000	
16.14660800000000	-56.25522400000000	802.06635600000004	58.48121700000000	0.11035000000000	0.00000000000000	0.11786200000000	-12.86203700000000	67.67919500000001	9.67751800000000	0.37446900000000	0.00000000000000	-0.07071700000000	0.00000000000000	25.05440400000000	0.00000000000000	0.00000000000000	5.94890700000000	0.00000000000000	
16.14827900000000	-56.33423300000000	797.47365100000002	57.93300900000000	0.10999200000000	0.00000000000000	0.11780400000000	-12.98541600000000	73.14815400000001	10.01086400000000	0.37669400000000	0.00000000000000	-0.07128600000000	0.00000000000000	24.89746400000000	0.00000000000000	0.00000000000000	6.22442400000000	0.00000000000000	
16.14994600000000	-56.41920600000000	792.72511399999996	57.35047700000000	0.10964400000000	0.00000000000000	0.11774100000000	-12.92747000000000	78.43389300000000	10.24246400000000	0.37880300000000	0.00000000000000	-0.07182900000000	0.00000000000000	24.73931300000000	0.00000000000000	0.00000000000000	6.44661400000000	0.00000000000000	
16.15162800000000	-56.51044900000000	787.82377599999995	56.73393700000000	0.10930300000000	0.00000000000000	0.11767300000000	-12.70409400000000	83.56845400000000	10.38061900000000	0.38079900000000	0.00000000000000	-0.07234900000000	0.00000000000000	24.58004000000000	0.00000000000000	0.00000000000000	6.61956700000000	0.00000000000000	
16.15327300000000	-56.60820900000000	782.77270999999996	56.08377800000000	0.10897000000000	0.00000000000000	0.11760000000000	-12.33481900000000	88.59685700000000	10.43607100000000	0.38268600000000	0.00000000000000	-0.07284900000000	0.00000000000000	24.41972200000000	0.00000000000000	0.00000000000000	6.74888300000000	0.00000000000000	
16.15494600000000	-56.71267000000000	777.57502399999998	55.40046600000000	0.10864400000000	0.00000000000000	0.11752100000000	-11.84091800000000	93.57198699999999	10.42084400000000	0.38446600000000	0.00000000000000	-0.07332900000000	0.00000000000000	24.25842300000000	0.00000000000000	0.00000000000000	6.84101800000000	0.00000000000000	
16.15662000000000	-56.82395400000000	772.23384199999998	54.68453700000000	0.10832300000000	0.00000000000000	0.11743700000000	-11.24369700000000	98.54971600000000	10.34718300000000	0.38614300000000	0.00000000000000	-0.07379200000000	0.00000000000000	24.09620100000000	0.00000000000000	0.00000000000000	6.90266900000000	0.00000000000000	
16.15828400000000	-56.94211300000000	766.75229400000001	53.93660300000000	0.10800800000000	0.00000000000000	0.11734700000000	-10.56307200000000	103.58459100000000	10.22665400000000	0.38771900000000	0.00000000000000	-0.07424000000000	0.00000000000000	23.93309900000000	0.00000000000000	0.00000000000000	6.94024500000000	0.00000000000000	
16.15994500000000	-57.06712900000000	761.13350800000001	53.15734600000000	0.10769800000000	0.00000000000000	0.11725100000000	-9.81650000000000	108.72634900000000	10.06945200000000	0.38919800000000	0.00000000000000	-0.07467400000000	0.00000000000000	23.76914900000000	0.00000000000000	0.00000000000000	6.95944600000000	0.00000000000000	
16.16161100000000	-57.19891000000000	755.38059099999998	52.34752000000000	0.10739000000000	0.00000000000000	0.11714900000000	-9.01827200000000	114.01736500000000	9.88392800000000	0.39058300000000	0.00000000000000	-0.07509500000000	0.00000000000000	23.60437200000000	0.00000000000000	0.00000000000000	6.96497300000000	0.00000000000000	
16.16327600000000	-57.33728800000000	749.49662499999999	51.50794700000000	0.10708600000000	0.00000000000000	0.11704200000000	-8.17917700000000	119.49107200000000	9.67634200000000	0.39187600000000	0.00000000000000	-0.07550300000000	0.00000000000000	23.43877900000000	0.00000000000000	0.00000000000000	6.96035700000000	0.00000000000000	
16.16494500000000	-57.48202000000000	743.48465299999998	50.63951800000000	0.10678300000000	0.00000000000000	0.11692900000000	-7.30647800000000	125.17129500000000	9.45080900000000	0.39308000000000	0.00000000000000	-0.07590100000000	0.00000000000000	23.27236500000000	0.00000000000000	0.00000000000000	6.94791100000000	0.00000000000000	
16.16661300000000	-57.63277900000000	737.34767399999998	49.74318800000000	0.10648100000000	0.00000000000000	0.11680900000000	-6.40415900000000	131.07238300000000	9.20941900000000	0.39419900000000	0.00000000000000	-0.07628800000000	0.00000000000000	23.10511900000000	0.00000000000000	0.00000000000000	6.92878500000000	0.00000000000000	
16.16827500000000	-57.78916000000000	731.08862699999997	48.81997700000000	0.10617900000000	0.00000000000000	0.11668400000000	-5.47337100000000	137.19998300000000	8.95248100000000	0.39523400000000	0.00000000000000	-0.07666500000000	0.00000000000000	22.93701400000000	0.00000000000000	0.00000000000000	6.90308800000000	0.00000000000000	
16.16994300000000	-57.95067600000000	724.71039299999995	47.87096600000000	0.10587700000000	0.00000000000000	0.11655300000000	-4.51299800000000	143.55227300000001	8.67885400000000	0.39619000000000	0.00000000000000	-0.07703300000000	0.00000000000000	22.76801500000000	0.00000000000000	0.00000000000000	6.87007800000000	0.00000000000000	
16.17161000000000	-58.11675700000000	718.21578099999999	46.89729600000000	0.10557200000000	0.00000000000000	0.11641500000000	-3.52030000000000	150.12149299999999	8.38632700000000	0.39706700000000	0.00000000000000	-0.07739300000000	0.00000000000000	22.59807300000000	0.00000000000000	0.00000000000000	6.82837100000000	0.00000000000000	
16.17327700000000	-58.28674900000000	711.60752800000000	45.90016300000000	0.10526500000000	0.00000000000000	0.11627200000000	-2.49154400000000	156.89558099999999	8.07200500000000	0.39787000000000	0.00000000000000	-0.07774400000000	0.00000000000000	22.42713000000000	0.00000000000000	0.00000000000000	6.77616600000000	0.00000000000000	
16.17493800000000	-58.45991500000000	704.88829299999998	44.88081800000000	0.10495500000000	0.00000000000000	0.11612200000000	-1.42260600000000	163.85979200000000	7.73267600000000	0.39860000000000	0.00000000000000	-0.07808700000000	0.00000000000000	22.25511700000000	0.00000000000000	0.00000000000000	6.71146200000000	0.00000000000000	
16.17661400000000	-58.63543700000000	698.06065300000000	43.84056300000000	0.10464100000000	0.00000000000000	0.11596700000000	-0.30947800000000	170.99817400000001	7.36513400000000	0.39926000000000	0.00000000000000	-0.07842200000000	0.00000000000000	22.08195500000000	0.00000000000000	0.00000000000000	6.63223800000000	0.00000000000000	
16.17827500000000	-58.81241600000000	691.12710900000002	42.78074500000000	0.10432200000000	0.00000000000000	0.11580500000000	0.85131300000000	178.29481899999999	6.96644100000000	0.39985400000000	0.00000000000000	-0.07875000000000	0.00000000000000	21.90755400000000	0.00000000000000	0.00000000000000	6.53661900000000	0.00000000000000	
16.17994100000000	-58.98986900000000	684.09007799999995	41.70275900000000	0.10399700000000	0.00000000000000	0.11563800000000	2.06240900000000	185.73484900000000	6.53412200000000	0.40038200000000	0.00000000000000	-0.07907100000000	0.00000000000000	21.73181700000000	0.00000000000000	0.00000000000000	6.42299100000000	0.00000000000000	
